# xmcd CD database file
#
# Track frame offsets:
#	150
#	16416
#	29971
#
# Disc length: 583 seconds
#
# Revision: 0
# Processed by: cddbd v1.5.2PL0 Copyright (c) Steve Scherf et al.
# Submitted via: CDex 1.51
#
DISCID=22024503
DTITLE=Christoff - Een Ster (Singel CD)
DYEAR=2008
DGENRE=Mars
TTITLE0=Een Ster (Disco Swing) (ChaChaCha -3)
TTITLE1=Als Je Vanavond (Mars)
TTITLE2=As Ek In Jou vonkeloë (Mars)
EXTD=YEAR: 2008
EXTT0=
EXTT1=
EXTT2=
PLAYORDER=
